<svg width="24" height="48" viewBox="0 0 24 48" fill="none" xmlns="http://www.w3.org/2000/svg" xmlns:xlink="http://www.w3.org/1999/xlink">
<path d="M19.023,10.793L19.023,34.751C19.023,39.355 15.294,43.084 10.69,43.084C6.086,43.084 2.356,39.355 2.356,34.751L2.356,8.709C2.356,5.834 4.69,3.501 7.565,3.501C10.44,3.501 12.773,5.834 12.773,8.709L12.773,30.584C12.773,31.73 11.836,32.668 10.69,32.668C9.544,32.668 8.606,31.73 8.606,30.584L8.606,10.793L5.481,10.793L5.481,30.584C5.481,33.459 7.815,35.793 10.69,35.793C13.565,35.793 15.898,33.459 15.898,30.584L15.898,8.709C15.898,4.105 12.169,0.376 7.565,0.376C2.961,0.376 -0.769,4.105 -0.769,8.709L-0.769,34.751C-0.769,41.084 4.356,46.209 10.69,46.209C17.023,46.209 22.148,41.084 22.148,34.751L22.148,10.793L19.023,10.793Z" transform="rotate(90 10.69 23.293)" fill="#A2A2A2"/>
</svg>
