<svg width="52" height="100" viewBox="0 0 52 100" fill="none" xmlns="http://www.w3.org/2000/svg" xmlns:xlink="http://www.w3.org/1999/xlink">
<path d="M43.215,21.76L43.215,74.033C43.215,84.078 35.078,92.215 25.033,92.215C14.988,92.215 6.851,84.078 6.851,74.033L6.851,17.215C6.851,10.942 11.942,5.851 18.215,5.851C24.488,5.851 29.578,10.942 29.578,17.215L29.578,64.942C29.578,67.442 27.533,69.488 25.033,69.488C22.533,69.488 20.488,67.442 20.488,64.942L20.488,21.76L13.669,21.76L13.669,64.942C13.669,71.215 18.76,76.306 25.033,76.306C31.306,76.306 36.397,71.215 36.397,64.942L36.397,17.215C36.397,7.169 28.26,-0.967 18.215,-0.967C8.169,-0.967 0.033,7.169 0.033,17.215L0.033,74.033C0.033,87.851 11.215,99.033 25.033,99.033C38.851,99.033 50.033,87.851 50.033,74.033L50.033,21.76L43.215,21.76Z" transform="rotate(90 25.033 49.033)" fill="#A2A2A2"/>
</svg>
